# xmcd CD database file
#
# Track frame offsets:
#	150
#	19090
#	45790
#	65902
#	83222
#	104292
#	124813
#	144082
#	158065
#	183680
#	203662
#	224816
#	240586
#	265837
#	285151
#	303401
#
# Disc length: 4283 seconds
#
# Revision: 0
# Processed by: cddbd v1.5.2PL0 Copyright (c) Steve Scherf et al.
# Submitted via: CDex 1.51
#
DISCID=de10b910
DTITLE=Santo Domingo - recuerdo de Santo Domingo 2005
DYEAR=2005
DGENRE=Merengue
TTITLE0=Mi tierra - El Jeffrey
TTITLE1=Con la espuela amola - Tono
TTITLE2=Yo pienso que - Julian
TTITLE3=Bailando nuevo ritmo
TTITLE4=Como decirte - Raul Santos
TTITLE5=Traigo fuego - Pena Suazo
TTITLE6=To pa ello - Frankie Boss
TTITLE7=Curate conmingo - Moreno Negron
TTITLE8=Ay ay ay - Antony Santos
TTITLE9=Quien eres tu - Frank Reyes
TTITLE10=Chica de mi barrio - Zacarias
TTITLE11=Vivi - Yoskar
TTITLE12=Si no te tengo - Raulin
TTITLE13=Estoy perdido - El Chaval
TTITLE14=No te vayas - Elvis Martinez
TTITLE15=Si tu estuviera - Los Toros Band
EXTD=YEAR: 2005
EXTT0=
EXTT1=
EXTT2=
EXTT3=
EXTT4=
EXTT5=
EXTT6=
EXTT7=
EXTT8=
EXTT9=
EXTT10=
EXTT11=
EXTT12=
EXTT13=
EXTT14=
EXTT15=
PLAYORDER=
